<?xml version="1.0" standalone="no"?>
<!DOCTYPE svg PUBLIC "-//W3C//DTD SVG 20010904//EN"
 "http://www.w3.org/TR/2001/REC-SVG-20010904/DTD/svg10.dtd">
<svg version="1.0" xmlns="http://www.w3.org/2000/svg"
 width="700.000000pt" height="700.000000pt" viewBox="0 0 700.000000 700.000000"
 preserveAspectRatio="xMidYMid meet">
<metadata>
Created by potrace 1.14, written by Peter Selinger 2001-2017
</metadata>
<g transform="translate(0.000000,700.000000) scale(0.100000,-0.100000)"
fill="#000000" stroke="none">
<path d="M3280 6994 c-19 -2 -84 -9 -145 -14 -578 -56 -1180 -283 -1660 -625
-237 -169 -531 -446 -709 -670 -416 -521 -673 -1147 -748 -1820 -17 -154 -17
-585 0 -730 69 -588 254 -1099 567 -1570 126 -189 242 -332 410 -504 580 -595
1295 -943 2140 -1043 145 -17 576 -17 730 0 822 91 1556 447 2131 1034 203
206 348 390 487 618 274 449 432 915 499 1465 16 135 16 591 0 730 -100 846
-447 1557 -1043 2141 -555 542 -1249 874 -2029 970 -117 15 -553 27 -630 18z
m908 -860 c128 -64 166 -231 78 -346 -87 -115 -259 -121 -354 -12 -106 119
-71 294 72 360 69 32 137 32 204 -2z m-1382 -948 c128 -34 244 -127 302 -242
42 -85 56 -152 49 -252 -4 -73 -11 -96 -46 -167 -146 -295 -518 -356 -752
-125 -142 141 -177 356 -87 540 55 112 175 212 297 246 62 17 174 17 237 0z
m2029 -796 c216 -55 378 -190 476 -395 133 -279 67 -606 -165 -823 -227 -212
-570 -249 -838 -91 -272 160 -410 482 -337 786 18 73 80 201 133 271 164 215
466 320 731 252z m-1760 -1560 c213 -51 397 -167 531 -335 101 -125 172 -279
205 -440 17 -86 14 -275 -6 -370 -48 -227 -180 -434 -365 -574 -566 -426
-1363 -137 -1537 557 -12 48 -17 110 -17 217 -1 177 18 262 90 414 140 296
427 508 749 550 96 13 254 5 350 -19z"/>
</g>
</svg>
