<svg width="25" height="22" viewBox="0 0 25 22" fill="none" xmlns="http://www.w3.org/2000/svg">
<path d="M25 3.18195C24.0791 3.58889 23.0916 3.86528 22.0541 3.98889C23.1125 3.35417 23.9263 2.34861 24.3083 1.15278C23.3194 1.74028 22.2208 2.16667 21.0527 2.39583C20.1166 1.4 18.7819 0.777779 17.3083 0.777779C14.4763 0.777779 12.1791 3.07222 12.1791 5.90556C12.1791 6.30695 12.2236 6.69861 12.3125 7.075C8.04856 6.85972 4.2694 4.81806 1.74023 1.71667C1.29856 2.47361 1.04579 3.35556 1.04579 4.29306C1.04579 6.07361 1.95134 7.64306 3.32773 8.5625C2.48745 8.53611 1.69579 8.30556 1.00412 7.92222C1.00412 7.94306 1.00412 7.96389 1.00412 7.98611C1.00412 10.4708 2.77218 12.5458 5.11801 13.0153C4.68745 13.1319 4.23468 13.1944 3.76662 13.1944C3.43745 13.1944 3.11523 13.1653 2.80273 13.1042C3.45412 15.1431 5.34995 16.625 7.59301 16.6667C5.83884 18.0417 3.62773 18.8611 1.22495 18.8611C0.809676 18.8611 0.402732 18.8361 0.00134277 18.7875C2.27079 20.2444 4.96662 21.0917 7.86384 21.0917C17.2972 21.0917 22.4569 13.2764 22.4569 6.5C22.4569 6.27639 22.4513 6.05417 22.4402 5.83472C23.4416 5.11528 24.3125 4.21111 25 3.18195Z" fill="black"/>
</svg>
